<svg width="1069" height="171" viewBox="0 0 1069 171" fill="none" xmlns="http://www.w3.org/2000/svg">
<path d="M74.9634 103.359C79.8852 105.504 82.3462 108.407 82.3462 112.066C82.3462 114.338 81.2103 116.547 78.9387 118.692C76.6671 120.837 74.08 122.352 71.1774 123.235C64.2363 123.992 59.3145 124.434 56.4118 124.56C39.5009 125.949 27.5749 127.274 20.6339 128.536C19.4981 129.293 17.1002 129.672 13.4404 129.672C9.90678 129.672 6.75175 128.031 3.97533 124.75C1.32511 121.468 0 118.061 0 114.527C0 113.139 0.189301 111.814 0.567904 110.552L24.7985 14.7655C26.1867 9.21267 27.638 5.55284 29.1524 3.78603C30.793 1.89301 33.6957 0.946507 37.8603 0.946507C41.2677 0.946507 44.1704 1.32511 46.5682 2.08231C49.0922 2.83952 50.4173 3.97533 50.5435 5.48974C50.5435 9.02337 42.4035 43.35 26.1236 108.47C37.2293 106.577 51.3638 105.062 68.5271 103.927L74.9634 103.359Z" fill="#FFE311"/>
<path d="M159.186 117.556C159.439 120.837 159.88 123.803 160.511 126.453C160.259 127.211 159.123 127.968 157.104 128.725C155.211 129.482 153.57 129.861 152.182 129.861C147.639 129.861 144.358 129.167 142.338 127.779C140.445 126.516 139.499 124.56 139.499 121.91C139.499 119.386 139.751 116.862 140.256 114.338C137.48 118.124 133.378 121.279 127.952 123.803C122.651 126.201 118.36 127.4 115.079 127.4C106.624 127.4 99.5563 124.939 93.8773 120.017C88.3244 115.095 85.548 107.208 85.548 96.3545C85.548 86.1322 87.9458 76.5409 92.7415 67.5806C97.6633 58.4942 104.415 51.2376 112.997 45.811C121.578 40.2581 131.107 37.4817 141.581 37.4817C143.6 37.4817 146.251 38.0496 149.532 39.1854C152.813 40.195 156.094 42.0249 159.376 44.6752C162.783 47.1992 165.623 50.4804 167.894 54.5188C168.904 54.5188 170.103 55.0236 171.491 56.0333C172.879 57.0429 173.573 58.0525 173.573 59.0621C173.573 60.1979 173.384 61.3337 173.005 62.4695L159.186 117.556ZM150.668 64.5518C149.911 61.7754 148.396 59.4407 146.124 57.5477C143.979 55.6546 142.023 54.7081 140.256 54.7081C134.451 54.7081 128.961 56.7905 123.787 60.9551C118.739 64.9935 114.637 70.0416 111.482 76.0992C108.327 82.1568 106.75 87.899 106.75 93.3256C106.75 98.6261 107.381 102.98 108.643 106.387C109.905 109.795 112.366 111.499 116.026 111.499C119.181 111.499 122.777 110.552 126.816 108.659C130.98 106.766 134.64 104.242 137.795 101.087C141.076 97.8058 143.222 94.3983 144.231 90.8647L150.668 64.5518Z" fill="#FFE311"/>
<path d="M209.721 106.577C209.721 109.479 210.478 111.814 211.993 113.581C213.507 115.222 215.652 116.042 218.429 116.042C222.215 116.042 225.307 114.969 227.705 112.824C230.229 110.552 232.879 107.397 235.655 103.359C237.674 100.456 239.315 98.3737 240.577 97.1117C241.839 95.8497 243.29 95.2186 244.931 95.2186C248.212 95.2186 250.547 95.6604 251.935 96.5438C253.323 97.301 254.017 98.9416 254.017 101.466C254.017 102.601 253.891 103.99 253.639 105.63C253.386 107.145 253.071 108.28 252.692 109.038C249.664 115.474 244.679 121.027 237.738 125.696C230.923 130.366 223.161 132.7 214.453 132.7C205.746 132.7 199.183 130.618 194.766 126.453C190.349 122.163 188.141 116.105 188.141 108.28C188.141 107.145 188.708 104.179 189.844 99.3833C190.98 94.5876 192.431 88.8455 194.198 82.1568L199.499 60.5765L187.951 61.523C186.437 61.523 185.301 60.9551 184.544 59.8193C183.787 58.6835 183.408 57.2953 183.408 55.6546C183.408 52.4996 184.544 49.3446 186.815 46.1896C187.068 45.811 188.33 45.4324 190.601 45.0537C192.873 44.6751 195.65 44.2966 198.931 43.918L204.042 43.35L210.478 15.712C211.74 12.4308 213.633 9.90677 216.157 8.13996C218.807 6.24695 221.268 5.30044 223.54 5.30044C226.064 5.30044 228.209 6.05765 229.976 7.57206C231.743 9.08647 232.69 10.8533 232.816 12.8725L226.001 41.2677C230.923 40.6367 235.466 40.1319 239.631 39.7533C243.921 39.2485 247.266 38.9961 249.664 38.9961C254.459 38.9961 256.857 41.7725 256.857 47.3254C256.857 49.4708 255.91 51.4269 254.017 53.1937C252.251 54.8343 250.295 55.8439 248.149 56.2225L221.647 58.8728L209.721 106.577Z" fill="#FFE311"/>
<path d="M286.298 14.9548C286.298 11.0426 287.497 7.57206 289.895 4.54323C292.419 1.51441 295.889 0 300.306 0C304.976 0 309.014 1.45131 312.421 4.35393C315.955 7.25656 317.722 10.5378 317.722 14.1976C317.722 17.8574 315.955 21.0125 312.421 23.6627C308.888 26.3129 304.786 27.638 300.117 27.638C295.574 27.638 292.103 26.5022 289.705 24.2306C287.434 21.8328 286.298 18.7408 286.298 14.9548ZM268.314 114.717C268.314 112.445 273.93 89.7289 285.162 46.5682L284.026 39.564C284.026 38.1758 284.847 37.1031 286.487 36.3459C288.128 35.5887 291.283 35.2101 295.952 35.2101C299.612 35.2101 302.262 36.2197 303.903 38.2389C305.67 40.2581 306.553 42.6559 306.553 45.4324C306.553 46.1896 306.427 47.1992 306.174 48.4612L289.327 116.61L290.462 123.614C290.462 125.002 289.642 126.075 288.002 126.832C286.361 127.589 283.206 127.968 278.536 127.968C274.372 127.968 271.658 126.769 270.396 124.371C269.134 121.847 268.44 118.629 268.314 114.717Z" fill="#FFE311"/>
<path d="M336.532 35.5887C342.716 32.4337 347.638 30.8561 351.298 30.8561C355.589 30.8561 357.986 33.0647 358.491 37.4817L352.244 60.7658C354.894 57.106 358.807 53.5092 363.981 49.9756C369.155 46.442 374.329 43.5393 379.504 41.2677C384.804 38.9961 389.032 37.8603 392.187 37.8603C398.876 37.8603 403.734 39.1223 406.763 41.6463C409.792 44.0441 411.306 47.8933 411.306 53.1937C410.044 60.261 408.151 68.7795 405.627 78.7494C403.103 88.5931 401.526 94.8401 400.895 97.4903C398.118 107.839 396.162 115.6 395.026 120.774C394.269 123.929 393.512 126.138 392.755 127.4C392.124 128.536 390.925 129.356 389.158 129.861C387.517 130.366 384.615 130.618 380.45 130.618C378.179 130.618 376.033 130.239 374.014 129.482C372.121 128.725 371.174 127.463 371.174 125.696C371.553 121.532 372.815 115.158 374.96 106.577C377.232 97.8689 380.261 86.637 384.047 72.8811C386.571 64.2994 387.833 59.63 387.833 58.8728C387.833 57.106 386.823 56.2225 384.804 56.2225C381.901 56.2225 377.548 58.2418 371.742 62.2802C365.937 66.1924 359.943 72.818 353.759 82.1568C347.575 91.3695 342.716 103.422 339.182 118.313C338.93 119.071 338.615 120.459 338.236 122.478C337.857 124.497 336.848 125.949 335.207 126.832C333.566 127.589 330.916 127.968 327.256 127.968C323.092 127.968 320 127.526 317.981 126.643C316.088 125.759 315.141 123.866 315.141 120.964L317.223 112.824C324.669 83.6713 331.106 57.9263 336.532 35.5887Z" fill="#FFE311"/>
<path d="M455.804 129.293C448.358 129.293 441.922 127.526 436.495 123.992C431.069 120.459 426.904 115.663 424.001 109.606C421.225 103.548 419.837 96.67 419.837 88.9717C419.837 78.8756 421.793 69.7892 425.705 61.7123C429.743 53.5092 435.423 47.073 442.742 42.4035C450.062 37.7341 458.58 35.3994 468.298 35.3994C479.025 35.3994 486.282 36.3459 490.068 38.2389C491.077 38.7437 492.024 39.564 492.907 40.6998C493.917 41.7094 494.485 42.719 494.611 43.7286C494.358 47.1361 493.223 49.5339 491.203 50.9221C494.106 51.1745 496.504 52.6258 498.397 55.276C500.416 57.9263 501.93 61.0182 502.94 64.5518C503.95 67.9592 504.455 71.0512 504.455 73.8276C504.455 82.7879 502.498 91.5588 498.586 100.14C494.674 108.596 488.995 115.6 481.549 121.153C474.229 126.58 465.648 129.293 455.804 129.293ZM458.454 113.581C462.493 113.581 466.342 111.625 470.002 107.713C473.788 103.8 476.816 98.6261 479.088 92.1898C481.486 85.6274 482.685 78.6232 482.685 71.1774C482.685 69.7891 482.243 68.5271 481.36 67.3913C480.476 66.2555 479.214 65.0566 477.574 63.7946C477.321 63.6684 476.69 63.1636 475.681 62.2802C474.797 61.3968 474.356 60.5765 474.356 59.8193C474.356 59.3145 474.482 58.6204 474.734 57.737C474.987 56.7273 475.113 56.0332 475.113 55.6546C475.113 53.8878 472.904 53.0044 468.487 53.0044C463.313 53.0044 458.707 55.0867 454.668 59.2514C450.756 63.2898 447.664 68.5271 445.392 74.9634C443.247 81.2734 442.174 87.6466 442.174 94.0828C442.174 97.7427 442.995 101.087 444.635 104.116C446.402 107.018 448.547 109.353 451.071 111.12C453.595 112.761 456.056 113.581 458.454 113.581Z" fill="#FFE311"/>
<path d="M580.91 29.3417C578.386 28.4583 576.43 27.1332 575.042 25.3664C573.78 23.4734 573.149 21.2649 573.149 18.7409C573.149 15.081 575.61 12.1784 580.531 10.033C598.578 6.37315 616.751 3.78603 635.05 2.27162C639.972 4.41703 642.433 7.31966 642.433 10.9795C642.433 13.2511 641.297 15.4596 639.026 17.605C636.754 19.7505 634.167 21.2649 631.264 22.1483L620.853 23.4734C618.707 32.9385 613.785 53.3199 606.087 84.6178L600.787 105.82L615.363 104.305C620.285 106.451 622.746 109.353 622.746 113.013C622.746 115.285 621.61 117.493 619.338 119.639C617.067 121.784 614.48 123.298 611.577 124.182L604.005 125.128C585.453 127.148 571.193 129.23 561.223 131.375C558.699 130.492 556.806 129.167 555.544 127.4C554.155 125.507 553.461 123.298 553.461 120.774C553.461 117.115 555.922 114.212 560.844 112.066C567.154 110.804 571.95 109.921 575.231 109.416L596.054 26.6915C590.88 27.4487 585.832 28.3321 580.91 29.3417Z" fill="#FFE311"/>
<path d="M658.047 119.071C657.921 119.828 656.407 126.075 653.504 137.811C650.602 149.548 648.519 157.12 647.257 160.528C646.753 161.916 645.238 162.925 642.714 163.556C640.19 164.314 638.36 164.692 637.224 164.692C631.798 164.692 628.895 161.222 628.516 154.281C630.536 140.02 634.006 121.532 638.928 98.8154C643.976 75.973 648.582 56.4118 652.747 40.1319C652.873 38.2389 653.946 36.409 655.965 34.6422C658.111 32.7492 660.004 31.8027 661.644 31.8027C662.78 31.8027 663.853 31.7396 664.862 31.6133C665.998 31.3609 667.008 31.2347 667.891 31.2347C669.532 31.2347 670.731 31.7396 671.488 32.7492C672.245 33.7588 672.624 35.7149 672.624 38.6175C672.624 41.7725 672.182 45.9372 671.299 51.1114C674.454 46.1896 677.924 42.5297 681.71 40.1319C685.496 37.7341 689.156 36.5352 692.69 36.5352C699.757 36.5352 706.004 38.4282 711.431 42.2142C716.857 45.8741 721.022 50.7959 723.924 56.9798C726.827 63.1636 728.278 69.8522 728.278 77.0457C728.278 85.7536 726.385 94.209 722.599 102.412C718.813 110.615 713.324 117.304 706.13 122.478C698.937 127.652 690.607 130.239 681.142 130.239C677.861 130.239 673.633 129.167 668.459 127.021C663.285 124.75 659.814 122.099 658.047 119.071ZM663.348 95.0294C663.222 95.7866 663.159 96.8593 663.159 98.2475C663.285 101.402 664.358 104.179 666.377 106.577C668.396 108.975 670.731 110.868 673.381 112.256C676.031 113.518 678.24 114.149 680.006 114.149C685.181 114.149 689.787 112.319 693.826 108.659C697.99 104.999 701.208 100.393 703.48 94.8401C705.751 89.161 706.887 83.4189 706.887 77.6136C706.887 61.4599 701.019 53.383 689.282 53.383C683.603 53.383 679.123 55.3391 675.842 59.2514C672.561 63.1636 669.658 69.663 667.134 78.7494L663.348 95.0294Z" fill="#FFE311"/>
<path d="M799.327 54.1402C797.813 53.383 795.92 53.0044 793.648 53.0044C787.969 53.0044 782.29 54.1402 776.611 56.4118C770.932 58.6835 768.092 61.5861 768.092 65.1197C768.092 67.6437 769.228 69.6629 771.5 71.1774C773.771 72.6918 777.368 74.3955 782.29 76.2885C787.59 78.4339 791.881 80.4531 795.162 82.3461C798.444 84.2392 801.283 87.0156 803.681 90.6754C806.205 94.209 807.467 98.7523 807.467 104.305C807.467 113.392 803.681 120.396 796.109 125.318C788.663 130.113 778.63 132.511 766.01 132.511C759.826 132.511 754.084 131.565 748.784 129.672C743.483 127.779 739.255 125.381 736.1 122.478C733.072 119.449 731.431 116.484 731.179 113.581C731.179 110.552 732.504 108.091 735.154 106.198C737.804 104.179 741.527 102.854 746.323 102.223C746.449 104.747 747.774 107.145 750.298 109.416C752.822 111.562 755.788 113.328 759.195 114.717C762.729 115.979 765.758 116.61 768.282 116.61C772.572 116.61 776.485 115.474 780.018 113.202C783.552 110.804 785.319 108.028 785.319 104.873C785.319 99.0678 779.703 94.4614 768.471 91.054C761.277 88.9086 755.725 85.5012 751.812 80.8317C748.026 76.1623 746.133 71.2405 746.133 66.0662C746.133 55.8439 750.74 48.5243 759.952 44.1072C769.291 39.564 781.154 37.2924 795.541 37.2924C803.618 37.2924 809.865 38.2389 814.282 40.1319C818.699 42.0249 820.907 45.3062 820.907 49.9756C820.907 53.1306 819.709 55.907 817.311 58.3049C815.039 60.7027 811.758 61.9016 807.467 61.9016C803.681 61.9016 801.22 61.6492 800.084 61.1444C799.075 60.5134 798.507 59.5038 798.381 58.1156C798.381 56.8535 798.696 55.5284 799.327 54.1402Z" fill="#FFE311"/>
<path d="M899.46 126.832C898.955 128.977 897.82 130.429 896.053 131.186C894.286 132.069 891.951 132.511 889.048 132.511C880.341 132.511 875.987 130.555 875.987 126.643L877.123 119.449C873.589 122.099 869.424 124.75 864.629 127.4C859.833 130.05 855.858 131.375 852.703 131.375C834.025 131.375 824.686 125.254 824.686 113.013C824.686 92.1898 830.933 69.5999 843.427 45.2431C844.941 42.3404 846.519 40.2581 848.159 38.9961C849.926 37.7341 852.892 37.1031 857.057 37.1031C861.474 37.1031 864.755 37.7341 866.9 38.9961C869.172 40.1319 870.308 41.5201 870.308 43.1607C870.308 43.5393 869.614 44.6751 868.225 46.5682C866.837 48.2088 865.638 49.8494 864.629 51.49C852.766 71.3036 846.834 90.6123 846.834 109.416C846.834 111.057 847.465 112.508 848.727 113.77C849.989 115.032 851.125 115.663 852.135 115.663C854.911 115.663 859.581 114.338 866.143 111.688C872.832 109.038 877.943 106.324 881.476 103.548L885.263 88.2145C889.806 69.9154 892.645 58.6835 893.781 54.5188C895.169 49.4708 896.936 45.3693 899.082 42.2142C901.353 38.933 904.887 37.2924 909.682 37.2924C916.371 37.2924 919.715 39.3116 919.715 43.35C919.715 43.9811 919.526 44.8014 919.148 45.811C918.895 46.6944 918.706 47.4516 918.58 48.0826L911.008 78.7494C904.95 103.106 901.101 119.134 899.46 126.832Z" fill="#FFE311"/>
<path d="M940.374 46.5682C940.753 43.7917 941.195 41.6463 941.7 40.1319C942.204 38.6175 943.151 37.4186 944.539 36.5352C946.053 35.6518 948.262 35.2101 951.165 35.2101C955.582 35.2101 958.547 36.4721 960.062 38.9961C961.576 41.3939 962.523 44.5489 962.901 48.4612C962.649 49.597 962.46 50.5435 962.333 51.3007C962.333 52.0579 962.207 52.9413 961.955 53.9509C966.246 48.9029 970.347 45.0538 974.259 42.4035C978.298 39.7533 982.967 38.4282 988.268 38.4282C994.199 38.4282 998.995 40.0057 1002.65 43.1607C1006.44 46.1896 1008.65 49.7863 1009.28 53.9509C1012.81 48.2719 1017.29 44.2965 1022.72 42.0249C1028.15 39.6271 1033.7 38.4282 1039.38 38.4282C1046.7 38.4282 1051.87 40.195 1054.9 43.7286C1058.06 47.2623 1059.63 51.8055 1059.63 57.3584C1059.63 59.1252 1059.38 61.6492 1058.88 64.9304C1055.6 81.7151 1052.25 99.2571 1048.84 117.556C1047.96 122.099 1047.01 125.507 1046 127.779C1045 130.176 1043.48 131.943 1041.46 133.079C1039.44 134.215 1036.54 134.783 1032.75 134.783C1029.72 134.783 1027.52 133.773 1026.13 131.754C1024.74 129.735 1024.05 127.211 1024.05 124.182C1024.05 123.172 1024.17 121.784 1024.42 120.017C1026.19 110.678 1028.4 100.14 1031.05 88.4038C1031.3 87.268 1032.19 83.3558 1033.7 76.6671C1035.21 69.9785 1035.97 65.6876 1035.97 63.7946C1035.97 61.1444 1035.4 59.3145 1034.27 58.3049C1033.13 57.1691 1031.81 56.6011 1030.29 56.6011C1027.14 56.6011 1023.16 57.9894 1018.37 60.7658C1013.7 63.5422 1010.42 66.0662 1008.52 68.3378C1006.5 74.7741 1002.97 89.0979 997.922 111.309C997.291 113.96 996.912 116.231 996.786 118.124C996.281 120.901 995.777 122.857 995.272 123.992C994.767 125.128 993.758 125.949 992.243 126.453C990.729 126.958 988.268 127.211 984.86 127.211C976.152 127.211 971.798 125.444 971.798 121.91C972.556 120.017 973.755 115.663 975.395 108.848C977.036 101.907 978.235 97.0486 978.992 94.2721C981.263 84.3023 983.977 73.2597 987.132 61.1444C987.132 60.0086 986.627 59.0621 985.617 58.3049C984.608 57.5477 983.472 57.169 982.21 57.169C977.667 57.169 972.997 59.0621 968.202 62.8481C963.532 66.6341 959.936 70.6726 957.412 74.9634C955.645 81.7782 953.625 89.4765 951.354 98.0582C949.208 106.514 947.568 113.328 946.432 118.503C945.675 122.036 944.413 124.497 942.646 125.885C940.879 127.274 937.85 127.968 933.56 127.968C929.9 127.968 927.123 127.526 925.23 126.643C923.337 125.633 922.391 123.74 922.391 120.964C922.391 119.575 923.968 112.193 927.123 98.8154C930.404 85.4381 934.822 68.0223 940.374 46.5682Z" fill="#FFE311"/>
<path d="M83.8369 109.274C88.7588 111.42 91.2197 114.322 91.2197 117.982C91.2197 120.254 90.0839 122.462 87.8123 124.608C85.5406 126.753 82.9535 128.268 80.0509 129.151C73.1098 129.908 68.188 130.35 65.2854 130.476C48.3744 131.864 36.4485 133.189 29.5074 134.451C28.3716 135.209 25.9738 135.587 22.3139 135.587C18.7803 135.587 15.6253 133.947 12.8489 130.665C10.1986 127.384 8.87354 123.977 8.87354 120.443C8.87354 119.055 9.06284 117.73 9.44144 116.468L33.672 20.6813C35.0602 15.1284 36.5116 11.4686 38.026 9.7018C39.6666 7.80878 42.5692 6.86228 46.7338 6.86228C50.1413 6.86228 53.0439 7.24088 55.4417 7.99808C57.9657 8.75529 59.2908 9.8911 59.417 11.4055C59.417 14.9391 51.2771 49.2658 34.9971 114.386C46.1028 112.493 60.2373 110.978 77.4007 109.842L83.8369 109.274Z" fill="#FD001D"/>
<path d="M168.06 123.472C168.312 126.753 168.754 129.719 169.385 132.369C169.133 133.126 167.997 133.884 165.978 134.641C164.084 135.398 162.444 135.777 161.056 135.777C156.512 135.777 153.231 135.082 151.212 133.694C149.319 132.432 148.372 130.476 148.372 127.826C148.372 125.302 148.625 122.778 149.13 120.254C146.353 124.04 142.252 127.195 136.825 129.719C131.525 132.117 127.234 133.316 123.953 133.316C115.497 133.316 108.43 130.855 102.751 125.933C97.198 121.011 94.4215 113.124 94.4215 102.27C94.4215 92.0479 96.8194 82.4567 101.615 73.4964C106.537 64.4099 113.289 57.1534 121.87 51.7267C130.452 46.1739 139.98 43.3975 150.455 43.3975C152.474 43.3975 155.124 43.9654 158.405 45.1012C161.687 46.1108 164.968 47.9407 168.249 50.5909C171.657 53.1149 174.496 56.3962 176.768 60.4346C177.777 60.4346 178.976 60.9394 180.364 61.949C181.753 62.9586 182.447 63.9682 182.447 64.9778C182.447 66.1136 182.257 67.2494 181.879 68.3853L168.06 123.472ZM159.541 70.4676C158.784 67.6912 157.27 65.3564 154.998 63.4634C152.853 61.5704 150.896 60.6239 149.13 60.6239C143.324 60.6239 137.835 62.7062 132.66 66.8709C127.612 70.9093 123.511 75.9573 120.356 82.015C117.201 88.0726 115.623 93.8148 115.623 99.2414C115.623 104.542 116.254 108.896 117.516 112.303C118.778 115.711 121.239 117.414 124.899 117.414C128.054 117.414 131.651 116.468 135.689 114.575C139.854 112.682 143.514 110.158 146.669 107.003C149.95 103.722 152.095 100.314 153.105 96.7805L159.541 70.4676Z" fill="#FD001D"/>
<path d="M218.594 112.493C218.594 115.395 219.352 117.73 220.866 119.497C222.38 121.137 224.526 121.958 227.302 121.958C231.088 121.958 234.18 120.885 236.578 118.739C239.102 116.468 241.752 113.313 244.529 109.274C246.548 106.372 248.189 104.289 249.451 103.027C250.713 101.765 252.164 101.134 253.805 101.134C257.086 101.134 259.42 101.576 260.809 102.46C262.197 103.217 262.891 104.857 262.891 107.381C262.891 108.517 262.765 109.905 262.512 111.546C262.26 113.06 261.945 114.196 261.566 114.953C258.537 121.39 253.552 126.943 246.611 131.612C239.796 136.281 232.035 138.616 223.327 138.616C214.619 138.616 208.057 136.534 203.64 132.369C199.223 128.078 197.014 122.021 197.014 114.196C197.014 113.06 197.582 110.095 198.718 105.299C199.854 100.503 201.305 94.7613 203.072 88.0726L208.372 66.4922L196.825 67.4388C195.31 67.4388 194.175 66.8709 193.417 65.735C192.66 64.5992 192.282 63.211 192.282 61.5704C192.282 58.4154 193.417 55.2604 195.689 52.1053C195.941 51.7267 197.203 51.3481 199.475 50.9695C201.747 50.5909 204.523 50.2123 207.804 49.8337L212.915 49.2658L219.352 21.6278C220.614 18.3466 222.507 15.8225 225.031 14.0557C227.681 12.1627 230.142 11.2162 232.413 11.2162C234.937 11.2162 237.083 11.9734 238.85 13.4878C240.617 15.0022 241.563 16.7691 241.689 18.7883L234.874 47.1835C239.796 46.5525 244.339 46.0477 248.504 45.6691C252.795 45.1643 256.139 44.9119 258.537 44.9119C263.333 44.9119 265.731 47.6883 265.731 53.2412C265.731 55.3866 264.784 57.3427 262.891 59.1095C261.124 60.7501 259.168 61.7597 257.023 62.1383L230.52 64.7885L218.594 112.493Z" fill="#FD001D"/>
<path d="M295.171 20.8706C295.171 16.9584 296.37 13.4878 298.768 10.459C301.292 7.43018 304.763 5.91577 309.18 5.91577C313.849 5.91577 317.888 7.36708 321.295 10.2697C324.829 13.1723 326.595 16.4536 326.595 20.1134C326.595 23.7732 324.829 26.9282 321.295 29.5785C317.761 32.2287 313.66 33.5538 308.99 33.5538C304.447 33.5538 300.977 32.418 298.579 30.1464C296.307 27.7485 295.171 24.6566 295.171 20.8706ZM277.188 120.632C277.188 118.361 282.804 95.6447 294.036 52.4839L292.9 45.4798C292.9 44.0916 293.72 43.0189 295.361 42.2617C297.001 41.5044 300.156 41.1259 304.826 41.1259C308.486 41.1259 311.136 42.1355 312.776 44.1547C314.543 46.1739 315.427 48.5717 315.427 51.3481C315.427 52.1053 315.3 53.1149 315.048 54.3769L298.2 122.525L299.336 129.53C299.336 130.918 298.516 131.991 296.875 132.748C295.234 133.505 292.079 133.884 287.41 133.884C283.245 133.884 280.532 132.685 279.27 130.287C278.008 127.763 277.314 124.545 277.188 120.632Z" fill="#FD001D"/>
<path d="M345.406 41.5045C351.59 38.3494 356.511 36.7719 360.171 36.7719C364.462 36.7719 366.86 38.9804 367.365 43.3975L361.118 66.6816C363.768 63.0217 367.68 59.425 372.854 55.8914C378.029 52.3577 383.203 49.4551 388.377 47.1835C393.678 44.9119 397.905 43.7761 401.06 43.7761C407.749 43.7761 412.608 45.0381 415.637 47.5621C418.665 49.9599 420.18 53.8091 420.18 59.1095C418.918 66.1767 417.025 74.6953 414.501 84.6652C411.977 94.5089 410.399 100.756 409.768 103.406C406.992 113.755 405.036 121.516 403.9 126.69C403.143 129.845 402.386 132.054 401.628 133.316C400.997 134.451 399.798 135.272 398.032 135.777C396.391 136.281 393.488 136.534 389.324 136.534C387.052 136.534 384.907 136.155 382.887 135.398C380.994 134.641 380.048 133.379 380.048 131.612C380.427 127.447 381.689 121.074 383.834 112.493C386.106 103.785 389.134 92.5528 392.92 78.7969C395.444 70.2152 396.706 65.5457 396.706 64.7885C396.706 63.0217 395.697 62.1383 393.678 62.1383C390.775 62.1383 386.421 64.1575 380.616 68.196C374.811 72.1082 368.816 78.7337 362.632 88.0726C356.448 97.2853 351.59 109.337 348.056 124.229C347.804 124.986 347.488 126.375 347.109 128.394C346.731 130.413 345.721 131.864 344.081 132.748C342.44 133.505 339.79 133.884 336.13 133.884C331.965 133.884 328.873 133.442 326.854 132.558C324.961 131.675 324.015 129.782 324.015 126.879L326.097 118.739C333.543 89.587 339.979 63.842 345.406 41.5045Z" fill="#FD001D"/>
<path d="M464.678 135.209C457.232 135.209 450.795 133.442 445.369 129.908C439.942 126.375 435.777 121.579 432.875 115.521C430.098 109.464 428.71 102.586 428.71 94.8875C428.71 84.7914 430.666 75.7049 434.579 67.6281C438.617 59.425 444.296 52.9887 451.616 48.3193C458.935 43.6499 467.454 41.3151 477.171 41.3151C487.899 41.3151 495.155 42.2617 498.941 44.1547C499.951 44.6595 500.897 45.4798 501.781 46.6156C502.79 47.6252 503.358 48.6348 503.484 49.6444C503.232 53.0518 502.096 55.4497 500.077 56.8379C502.98 57.0903 505.377 58.5416 507.27 61.1918C509.29 63.842 510.804 66.934 511.814 70.4676C512.823 73.875 513.328 76.9669 513.328 79.7434C513.328 88.7036 511.372 97.4746 507.46 106.056C503.547 114.512 497.868 121.516 490.423 127.069C483.103 132.495 474.521 135.209 464.678 135.209ZM467.328 119.497C471.366 119.497 475.215 117.541 478.875 113.628C482.661 109.716 485.69 104.542 487.962 98.1056C490.359 91.5432 491.558 84.539 491.558 77.0931C491.558 75.7049 491.117 74.4429 490.233 73.3071C489.35 72.1713 488.088 70.9724 486.447 69.7104C486.195 69.5842 485.564 69.0794 484.554 68.196C483.671 67.3126 483.229 66.4923 483.229 65.735C483.229 65.2302 483.355 64.5361 483.608 63.6527C483.86 62.6431 483.986 61.949 483.986 61.5704C483.986 59.8036 481.778 58.9202 477.361 58.9202C472.187 58.9202 467.58 61.0025 463.542 65.1671C459.63 69.2056 456.538 74.4429 454.266 80.8792C452.121 87.1892 451.048 93.5624 451.048 99.9986C451.048 103.658 451.868 107.003 453.509 110.032C455.276 112.934 457.421 115.269 459.945 117.036C462.469 118.676 464.93 119.497 467.328 119.497Z" fill="#FD001D"/>
<path d="M589.784 35.2575C587.26 34.3741 585.303 33.049 583.915 31.2822C582.653 29.3892 582.022 27.1806 582.022 24.6566C582.022 20.9968 584.483 18.0942 589.405 15.9488C607.452 12.2889 625.625 9.7018 643.924 8.18739C648.846 10.3328 651.307 13.2354 651.307 16.8953C651.307 19.1669 650.171 21.3754 647.899 23.5208C645.628 25.6662 643.04 27.1806 640.138 28.064L629.726 29.3892C627.581 38.8542 622.659 59.2357 614.961 90.5335L609.66 111.735L624.237 110.221C629.158 112.366 631.619 115.269 631.619 118.929C631.619 121.2 630.483 123.409 628.212 125.554C625.94 127.7 623.353 129.214 620.45 130.098L612.878 131.044C594.327 133.063 580.066 135.146 570.096 137.291C567.572 136.408 565.679 135.082 564.417 133.316C563.029 131.423 562.335 129.214 562.335 126.69C562.335 123.03 564.796 120.128 569.718 117.982C576.028 116.72 580.823 115.837 584.105 115.332L604.928 32.6073C599.754 33.3645 594.705 34.2479 589.784 35.2575Z" fill="#FD001D"/>
<path d="M666.921 124.986C666.795 125.744 665.28 131.991 662.378 143.727C659.475 155.464 657.393 163.036 656.131 166.443C655.626 167.832 654.112 168.841 651.588 169.472C649.064 170.229 647.234 170.608 646.098 170.608C640.671 170.608 637.769 167.138 637.39 160.196C639.409 145.936 642.88 127.447 647.802 104.731C652.85 81.8888 657.456 62.3276 661.621 46.0477C661.747 44.1547 662.82 42.3248 664.839 40.5579C666.984 38.6649 668.877 37.7184 670.518 37.7184C671.654 37.7184 672.726 37.6553 673.736 37.5291C674.872 37.2767 675.881 37.1505 676.765 37.1505C678.405 37.1505 679.604 37.6553 680.361 38.6649C681.119 39.6745 681.497 41.6307 681.497 44.5333C681.497 47.6883 681.056 51.8529 680.172 57.0272C683.327 52.1053 686.798 48.4455 690.584 46.0477C694.37 43.6499 698.03 42.451 701.563 42.451C708.63 42.451 714.877 44.344 720.304 48.13C725.731 51.7898 729.895 56.7117 732.798 62.8955C735.701 69.0794 737.152 75.768 737.152 82.9615C737.152 91.6693 735.259 100.125 731.473 108.328C727.687 116.531 722.197 123.22 715.004 128.394C707.81 133.568 699.481 136.155 690.016 136.155C686.735 136.155 682.507 135.082 677.333 132.937C672.158 130.665 668.688 128.015 666.921 124.986ZM672.221 100.945C672.095 101.702 672.032 102.775 672.032 104.163C672.158 107.318 673.231 110.095 675.25 112.493C677.27 114.89 679.604 116.783 682.254 118.172C684.905 119.434 687.113 120.065 688.88 120.065C694.054 120.065 698.661 118.235 702.699 114.575C706.864 110.915 710.082 106.309 712.353 100.756C714.625 95.0768 715.761 89.3346 715.761 83.5294C715.761 67.3757 709.892 59.2988 698.156 59.2988C692.477 59.2988 687.997 61.2549 684.715 65.1671C681.434 69.0794 678.532 75.5787 676.008 84.6652L672.221 100.945Z" fill="#FD001D"/>
<path d="M808.201 60.056C806.686 59.2988 804.793 58.9202 802.522 58.9202C796.842 58.9202 791.163 60.056 785.484 62.3276C779.805 64.5992 776.966 67.5019 776.966 71.0355C776.966 73.5595 778.102 75.5787 780.373 77.0931C782.645 78.6075 786.242 80.3113 791.164 82.2043C796.464 84.3497 800.755 86.3689 804.036 88.2619C807.317 90.1549 810.157 92.9314 812.555 96.5912C815.079 100.125 816.341 104.668 816.341 110.221C816.341 119.307 812.555 126.312 804.983 131.233C797.537 136.029 787.504 138.427 774.884 138.427C768.7 138.427 762.958 137.48 757.657 135.587C752.357 133.694 748.129 131.296 744.974 128.394C741.945 125.365 740.304 122.399 740.052 119.497C740.052 116.468 741.377 114.007 744.027 112.114C746.678 110.095 750.401 108.77 755.196 108.139C755.322 110.663 756.647 113.06 759.172 115.332C761.696 117.477 764.661 119.244 768.069 120.632C771.602 121.894 774.631 122.525 777.155 122.525C781.446 122.525 785.358 121.39 788.892 119.118C792.426 116.72 794.192 113.944 794.192 110.789C794.192 104.984 788.576 100.377 777.344 96.9698C770.151 94.8244 764.598 91.417 760.686 86.7475C756.9 82.0781 755.007 77.1562 755.007 71.982C755.007 61.7597 759.613 54.44 768.826 50.023C778.165 45.4798 790.028 43.2082 804.415 43.2082C812.491 43.2082 818.738 44.1547 823.155 46.0477C827.572 47.9407 829.781 51.2219 829.781 55.8914C829.781 59.0464 828.582 61.8228 826.184 64.2206C823.913 66.6185 820.631 67.8174 816.341 67.8174C812.555 67.8174 810.094 67.565 808.958 67.0602C807.948 66.4291 807.38 65.4195 807.254 64.0313C807.254 62.7693 807.57 61.4442 808.201 60.056Z" fill="#FD001D"/>
<path d="M908.334 132.748C907.829 134.893 906.693 136.344 904.926 137.102C903.159 137.985 900.825 138.427 897.922 138.427C889.214 138.427 884.86 136.471 884.86 132.558L885.996 125.365C882.462 128.015 878.298 130.665 873.502 133.316C868.707 135.966 864.731 137.291 861.576 137.291C842.899 137.291 833.56 131.17 833.56 118.929C833.56 98.1056 839.807 75.5156 852.301 51.1588C853.815 48.2562 855.392 46.1739 857.033 44.9119C858.8 43.6499 861.766 43.0189 865.93 43.0189C870.347 43.0189 873.628 43.6499 875.774 44.9119C878.045 46.0477 879.181 47.4359 879.181 49.0765C879.181 49.4551 878.487 50.5909 877.099 52.4839C875.711 54.1245 874.512 55.7652 873.502 57.4058C861.639 77.2193 855.708 96.5281 855.708 115.332C855.708 116.973 856.339 118.424 857.601 119.686C858.863 120.948 859.999 121.579 861.008 121.579C863.785 121.579 868.454 120.254 875.017 117.604C881.705 114.953 886.816 112.24 890.35 109.464L894.136 94.1303C898.679 75.8311 901.519 64.5992 902.655 60.4346C904.043 55.3866 905.81 51.285 907.955 48.13C910.227 44.8488 913.76 43.2082 918.556 43.2082C925.245 43.2082 928.589 45.2274 928.589 49.2658C928.589 49.8968 928.4 50.7171 928.021 51.7267C927.769 52.6101 927.579 53.3673 927.453 53.9983L919.881 84.6652C913.823 109.022 909.974 125.05 908.334 132.748Z" fill="#FD001D"/>
<path d="M949.248 52.4839C949.627 49.7075 950.068 47.5621 950.573 46.0477C951.078 44.5333 952.024 43.3344 953.413 42.451C954.927 41.5676 957.136 41.1259 960.038 41.1259C964.455 41.1259 967.421 42.3879 968.935 44.9119C970.45 47.3097 971.396 50.4647 971.775 54.3769C971.522 55.5128 971.333 56.4593 971.207 57.2165C971.207 57.9737 971.081 58.8571 970.828 59.8667C975.119 54.8187 979.221 50.9695 983.133 48.3193C987.171 45.6691 991.841 44.344 997.141 44.344C1003.07 44.344 1007.87 45.9215 1011.53 49.0765C1015.31 52.1053 1017.52 55.7021 1018.15 59.8667C1021.69 54.1877 1026.17 50.2123 1031.59 47.9407C1037.02 45.5429 1042.57 44.344 1048.25 44.344C1055.57 44.344 1060.75 46.1108 1063.78 49.6444C1066.93 53.178 1068.51 57.7213 1068.51 63.2741C1068.51 65.0409 1068.26 67.565 1067.75 70.8462C1064.47 87.6309 1061.13 105.173 1057.72 123.472C1056.83 128.015 1055.89 131.423 1054.88 133.694C1053.87 136.092 1052.35 137.859 1050.33 138.995C1048.32 140.131 1045.41 140.698 1041.63 140.698C1038.6 140.698 1036.39 139.689 1035 137.67C1033.61 135.65 1032.92 133.126 1032.92 130.098C1032.92 129.088 1033.05 127.7 1033.3 125.933C1035.06 116.594 1037.27 106.056 1039.92 94.3196C1040.18 93.1838 1041.06 89.2715 1042.57 82.5829C1044.09 75.8942 1044.85 71.6034 1044.85 69.7104C1044.85 67.0602 1044.28 65.2302 1043.14 64.2206C1042.01 63.0848 1040.68 62.5169 1039.17 62.5169C1036.01 62.5169 1032.04 63.9051 1027.24 66.6816C1022.57 69.458 1019.29 71.982 1017.4 74.2536C1015.38 80.6899 1011.84 95.0137 1006.8 117.225C1006.16 119.875 1005.79 122.147 1005.66 124.04C1005.15 126.816 1004.65 128.772 1004.15 129.908C1003.64 131.044 1002.63 131.864 1001.12 132.369C999.602 132.874 997.141 133.126 993.734 133.126C985.026 133.126 980.672 131.36 980.672 127.826C981.429 125.933 982.628 121.579 984.269 114.764C985.909 107.823 987.108 102.964 987.865 100.188C990.137 90.218 992.85 79.1755 996.005 67.0602C996.005 65.9243 995.501 64.9778 994.491 64.2206C993.481 63.4634 992.346 63.0848 991.084 63.0848C986.54 63.0848 981.871 64.9778 977.075 68.7639C972.406 72.5499 968.809 76.5883 966.285 80.8792C964.518 87.694 962.499 95.3923 960.227 103.974C958.082 112.429 956.441 119.244 955.306 124.419C954.548 127.952 953.286 130.413 951.52 131.801C949.753 133.189 946.724 133.884 942.433 133.884C938.773 133.884 935.997 133.442 934.104 132.558C932.211 131.549 931.264 129.656 931.264 126.879C931.264 125.491 932.842 118.108 935.997 104.731C939.278 91.3538 943.695 73.9381 949.248 52.4839Z" fill="#FD001D"/>
</svg>
